<?xml version="1.0" standalone="no"?><!DOCTYPE svg PUBLIC "-//W3C//DTD SVG 20010904//EN"
    "http://www.w3.org/TR/2001/REC-SVG-20010904/DTD/svg10.dtd">
<svg version="1.0" xmlns="http://www.w3.org/2000/svg" width="519.000000pt" height="330.000000pt"
    viewBox="0 0 519.000000 330.000000" preserveAspectRatio="xMidYMid meet">

    <g transform="translate(0.000000,330.000000) scale(0.100000,-0.100000)" fill="#000000"
        stroke="none">
        <path d="M2503 3030 c-34 -31 -35 -66 -13 -249 12 -94 20 -186 18 -204 -3 -31
-4 -32 -55 -35 -61 -4 -62 -2 -72 121 -5 61 -11 82 -26 93 -35 26 -120 21
-152 -9 -27 -24 -29 -53 -8 -121 22 -72 14 -86 -45 -86 -59 0 -62 4 -85 121
-23 117 -43 165 -82 199 -66 58 -163 27 -163 -52 0 -18 20 -77 44 -131 51
-113 50 -117 -51 -118 -120 -1 -168 -40 -144 -119 10 -33 19 -45 49 -57 46
-19 145 -13 225 15 50 18 60 19 94 6 50 -17 135 -17 203 0 48 12 62 12 110 0
68 -18 131 -18 197 -1 45 12 60 12 112 -2 49 -13 73 -13 137 -4 85 12 120 32
147 84 16 30 17 60 15 277 l-3 244 -28 24 c-37 32 -107 34 -136 3 -32 -35 -33
-65 -10 -266 25 -220 25 -223 -47 -223 -39 0 -46 3 -54 26 -6 14 -10 115 -10
225 l0 201 -29 29 c-37 36 -104 41 -138 9z" />
        <path d="M4352 3034 c-25 -17 -30 -71 -9 -93 10 -11 8 -12 -9 -7 -29 9 -74
-28 -74 -60 0 -53 69 -84 103 -46 19 21 23 72 7 88 -7 7 -1 11 19 11 28 0 29
-2 15 -21 -8 -11 -14 -28 -14 -36 0 -25 38 -60 65 -60 24 0 65 41 65 65 0 25
-36 58 -63 58 -22 0 -25 2 -17 18 16 28 12 57 -10 79 -24 24 -48 25 -78 4z" />
        <path d="M4633 3024 c-25 -26 -26 -28 -19 -127 3 -55 13 -149 22 -208 20 -135
15 -149 -56 -149 -61 0 -70 13 -70 107 0 80 -15 108 -65 122 -42 11 -105 -2
-123 -26 -10 -13 -12 -33 -7 -73 4 -30 8 -71 9 -90 l1 -35 -55 0 -55 0 3 66
c4 68 -12 124 -46 163 -23 26 -91 56 -127 56 -51 0 -110 -34 -128 -73 -21 -43
-22 -142 -2 -177 22 -38 19 -41 -37 -38 l-53 3 -25 64 c-48 119 -146 178 -285
169 -129 -8 -205 -76 -205 -183 0 -105 90 -184 220 -192 55 -4 72 -1 114 21
49 25 49 25 76 6 57 -40 174 -51 275 -24 48 12 69 13 103 4 85 -21 193 -23
264 -6 56 15 71 15 90 4 15 -8 59 -13 123 -13 83 0 108 4 145 22 80 40 85 55
88 307 4 289 -8 326 -108 326 -31 0 -47 -6 -67 -26z m-563 -369 c12 -14 5 -55
-9 -55 -16 0 -43 40 -38 55 8 19 31 19 47 0z m-459 -44 c33 -27 15 -43 -42
-39 -34 2 -45 7 -47 22 -8 38 50 49 89 17z" />
        <path d="M4972 3027 c-16 -17 -22 -36 -22 -68 0 -78 80 -522 97 -541 21 -23
55 -23 76 0 15 16 17 51 17 280 0 143 -4 272 -10 286 -17 45 -46 66 -93 66
-33 0 -49 -6 -65 -23z" />
        <path d="M3940 2990 c-11 -11 -20 -29 -20 -40 0 -29 36 -60 69 -60 32 0 61 30
61 62 0 26 -36 58 -65 58 -14 0 -34 -9 -45 -20z" />
        <path d="M4077 2992 c-21 -23 -22 -66 -1 -86 34 -35 104 -8 104 40 0 55 -68
85 -103 46z" />
        <path d="M3422 2934 c-26 -18 -30 -65 -6 -88 8 -9 28 -16 44 -16 36 0 60 24
60 60 0 30 -30 60 -60 60 -9 0 -26 -7 -38 -16z" />
        <path d="M3550 2930 c-41 -41 -13 -100 46 -100 38 0 54 16 54 55 0 58 -60 85
-100 45z" />
        <path d="M2169 2930 c-25 -15 -32 -58 -14 -86 31 -48 115 -21 115 38 0 43 -61
71 -101 48z" />
        <path d="M2297 2922 c-21 -23 -22 -66 -1 -86 34 -35 104 -8 104 40 0 55 -68
85 -103 46z" />
        <path d="M980 2757 c-35 -17 -48 -59 -31 -100 29 -71 39 -102 34 -109 -2 -5
-22 -8 -43 -8 -43 0 -53 12 -80 98 -26 84 -119 123 -156 67 -14 -21 -14 -32
-4 -75 7 -28 10 -53 7 -56 -6 -6 -40 50 -57 96 -17 46 -36 60 -80 60 -62 0
-89 -53 -67 -132 12 -45 -17 -24 -48 35 -41 76 -53 87 -95 87 -93 0 -116 -75
-56 -183 42 -76 53 -125 33 -151 -13 -18 -18 -18 -46 -6 -59 24 -72 53 -70
150 2 96 -11 129 -62 156 -56 29 -108 14 -135 -38 -26 -49 -16 -206 17 -278
52 -112 131 -161 269 -167 68 -3 92 -1 120 14 43 22 70 73 70 131 0 42 0 42
38 42 20 0 51 9 69 19 31 20 32 20 84 0 37 -14 65 -19 89 -14 19 3 49 6 65 5
166 -6 191 -4 225 16 61 35 80 75 80 165 0 95 -20 154 -61 174 -34 18 -76 19
-109 2z" />
        <path d="M1427 2658 c-38 -34 -147 -339 -147 -412 0 -73 20 -97 86 -103 43 -5
54 -2 82 22 40 34 54 80 83 292 28 196 25 216 -38 221 -31 2 -47 -2 -66 -20z" />
        <path d="M960 2327 c-37 -19 -41 -80 -6 -102 33 -22 73 -13 88 20 15 33 3 69
-27 83 -31 14 -25 14 -55 -1z" />
        <path d="M1092 2328 c-46 -22 -37 -101 13 -114 39 -10 75 19 75 60 0 49 -43
75 -88 54z" />
        <path d="M825 1924 c-132 -52 -301 -119 -375 -148 -113 -45 -137 -58 -145 -80
-7 -21 -5 -30 10 -45 17 -17 341 -150 662 -272 l103 -39 1878 0 c1680 0 1880
2 1900 16 22 15 22 16 22 324 0 267 -2 311 -16 324 -14 14 -200 16 -1907 16
l-1892 -1 -240 -95z m3955 -244 l0 -240 -1800 0 -1800 0 0 240 0 240 1800 0
1800 0 0 -240z m-3712 -113 l-3 -113 -287 110 c-158 61 -288 114 -288 117 0 4
129 56 288 116 l287 110 3 -113 c1 -63 1 -165 0 -227z" />
        <path d="M997 1140 c-22 -17 -27 -29 -27 -64 0 -53 22 -76 73 -76 49 0 77 28
77 78 0 49 -17 71 -60 78 -27 4 -42 1 -63 -16z" />
        <path d="M4096 1137 c-19 -19 -26 -37 -26 -65 0 -49 24 -72 73 -72 49 0 77 28
77 78 0 50 -17 71 -62 78 -30 5 -41 2 -62 -19z" />
        <path d="M584 1133 l-71 -4 1 -284 1 -285 77 0 77 0 -6 129 -6 130 27 7 c52
13 61 -10 57 -146 l-3 -120 76 0 76 0 0 161 c0 91 -4 169 -10 180 -13 24 -61
49 -95 49 -30 0 -75 -21 -94 -44 -8 -9 -17 -16 -21 -16 -4 0 -5 56 -2 125 3
70 1 124 -4 123 -5 -1 -41 -4 -80 -5z" />
        <path d="M57 1033 c-3 -31 -4 -60 -1 -65 3 -4 31 -5 63 -2 l58 7 8 -106 c4
-57 4 -150 0 -206 l-8 -101 83 0 83 0 -7 102 c-4 55 -4 148 0 206 l7 105 58
-6 57 -7 4 61 c1 33 1 63 -1 65 -2 2 -93 4 -201 4 l-197 0 -6 -57z" />
        <path d="M2145 1036 c-4 -30 -4 -59 -1 -65 5 -7 29 -8 66 -4 l60 6 0 -207 0
-206 78 0 77 0 0 202 0 203 60 0 60 0 3 63 3 62 -200 0 -200 0 -6 -54z" />
        <path d="M3125 1031 c-58 -17 -60 -19 -63 -54 -3 -32 -7 -37 -28 -37 -21 0
-24 -5 -24 -35 0 -19 -1 -38 -2 -42 -2 -5 9 -9 25 -11 l27 -3 0 -114 c0 -104
2 -116 23 -140 27 -32 89 -48 137 -35 54 15 62 24 67 74 l6 47 -36 -6 c-48 -9
-58 11 -50 103 l6 72 38 0 c36 0 39 2 39 29 0 16 3 36 6 45 5 13 -2 16 -40 16
l-46 0 0 55 c0 62 3 61 -85 36z" />
        <path d="M5096 959 c-37 -12 -70 -15 -136 -11 -77 4 -94 2 -134 -18 -54 -26
-76 -61 -76 -121 0 -33 6 -47 34 -75 l34 -34 -35 -26 c-39 -29 -38 -54 3 -91
l24 -22 -30 -22 c-52 -39 -32 -100 43 -128 47 -18 166 -13 214 9 49 22 83 70
83 118 0 65 -35 95 -125 106 -103 14 -115 17 -115 31 0 11 14 15 55 15 106 0
168 47 169 128 1 42 4 48 26 52 21 4 25 11 28 49 2 24 0 47 -5 50 -4 4 -30 0
-57 -10z m-126 -114 c17 -20 5 -62 -20 -70 -45 -14 -79 20 -65 65 8 24 66 28
85 5z m13 -315 c20 -18 2 -45 -32 -48 -54 -5 -81 5 -81 32 0 12 3 26 7 30 9 9
94 -2 106 -14z" />
        <path d="M1775 954 c-43 -6 -108 -24 -121 -35 -8 -7 -9 -23 -2 -57 6 -26 11
-48 13 -50 1 -1 22 7 46 18 52 23 92 25 109 5 22 -27 4 -39 -76 -52 -64 -10
-83 -17 -101 -38 -27 -31 -31 -91 -8 -134 14 -28 68 -61 100 -61 21 0 68 25
85 45 12 14 16 13 41 -15 30 -32 49 -36 96 -19 23 7 32 18 37 41 9 46 7 58 -9
58 -12 0 -15 19 -15 109 0 102 -2 111 -25 139 -14 17 -39 33 -55 36 -55 11
-85 13 -115 10z m53 -256 c-3 -29 -7 -33 -34 -36 -24 -2 -33 1 -36 16 -9 31
11 49 55 51 15 1 18 -5 15 -31z" />
        <path d="M3475 950 c-58 -9 -100 -34 -127 -77 -20 -33 -23 -51 -23 -130 0 -98
10 -124 66 -165 57 -42 189 -35 245 14 47 41 64 87 64 170 0 143 -81 210 -225
188z m63 -113 c16 -19 25 -116 14 -152 -5 -20 -16 -31 -31 -33 -41 -6 -51 14
-51 103 0 45 3 85 7 88 11 12 50 8 61 -6z" />
        <path d="M1028 943 l-58 -4 0 -189 0 -190 75 0 75 0 0 195 c0 180 -1 195 -17
193 -10 -1 -44 -3 -75 -5z" />
        <path d="M1285 936 c-92 -42 -134 -185 -86 -292 34 -76 123 -114 173 -75 45
36 49 29 42 -69 l-7 -90 79 0 79 0 0 271 0 271 -35 -7 c-38 -8 -43 -8 -145 0
-49 4 -79 1 -100 -9z m129 -102 c11 -28 6 -140 -6 -152 -18 -18 -56 -14 -68 7
-14 27 -13 134 2 149 17 17 65 15 72 -4z" />
        <path d="M2658 943 l-58 -4 0 -159 c0 -150 1 -160 23 -185 26 -31 91 -49 121
-33 12 6 33 22 48 36 l27 25 34 -37 c37 -39 48 -42 94 -25 23 7 32 18 37 41 9
47 7 58 -10 58 -15 0 -16 15 -12 146 l5 146 -30 -6 c-16 -3 -49 -6 -73 -6
l-43 0 -3 -127 -3 -128 -30 0 -30 0 -5 130 c-4 106 -8 130 -20 131 -8 0 -41
-1 -72 -3z" />
        <path d="M3811 941 l-54 -6 -1 -188 -1 -187 79 0 79 0 -6 105 -7 105 33 21
c20 13 42 18 60 15 l27 -5 0 74 c0 46 -4 75 -10 75 -21 0 -70 -31 -80 -50 -16
-31 -30 -24 -30 15 0 27 -4 35 -17 33 -10 -1 -42 -4 -72 -7z" />
        <path d="M4128 943 l-58 -4 0 -189 0 -190 75 0 75 0 0 195 c0 180 -1 195 -17
193 -10 -1 -44 -3 -75 -5z" />
        <path d="M4358 943 l-56 -4 1 -189 0 -190 76 0 76 0 -3 130 -3 129 26 7 c15 4
32 1 41 -7 14 -12 16 -31 11 -136 l-5 -123 79 0 79 0 0 155 c0 171 -8 202 -55
223 -42 19 -79 14 -126 -18 l-44 -29 -3 29 c-2 21 -8 29 -20 28 -9 -1 -42 -3
-74 -5z" />
    </g>
</svg>
